<svg width="83" height="79" viewBox="0 0 83 79" fill="none" xmlns="http://www.w3.org/2000/svg">
<path d="M45.1554 42.7663H16.3419L18.0621 67.677L35.2642 68.0544L47.7357 66.5447L45.1554 42.7663Z" fill="#B66316" fill-opacity="0.69"/>
<path d="M58.9171 55.5991L47.7357 66.5447L44.2953 42.3889L58.9171 31.0659L64.5078 25.7818L65.7979 49.1827L58.9171 55.5991Z" fill="#CC9868"/>
<path d="M69.6684 41.634L45.1554 42.7663L65.7979 25.4044L83 22.3849L69.6684 41.634Z" fill="#D4A87E"/>
<path d="M36.9844 26.5367L17.202 42.7663H38.2746L36.9844 26.5367Z" fill="#D3A378"/>
<path d="M64.5078 26.5367H36.9844L37.8445 42.7663H44.7254L64.5078 26.5367Z" fill="#CC9868"/>
<path d="M47.7357 17.1008L38.7047 26.5367H64.5078L73.1088 18.2331L71.8187 17.8557L47.7357 17.1008Z" fill="#D4A87E"/>
<path d="M18.0622 18.988L37.4145 26.5367L18.0622 43.5212L14.6218 42.7663L0 34.0854L18.0622 18.988Z" fill="#D4A87E"/>
<path d="M6.4507 52.1727L16.7719 42.7368H45.5854L37.8445 55.5696H35.2642L6.4507 52.1727Z" fill="#D4A87E"/>
<path d="M62.7876 51.4473L55.0466 58.6186L77.4093 63.5252L71.8187 61.638H76.5492L75.2591 60.8832H77.4093L75.6891 58.996H78.6995L76.1192 57.4863H78.6995L76.9793 56.7314L79.9896 56.354L79.1295 55.9765L62.7876 51.4473Z" fill="#A5C2F8"/>
<path d="M18.8886 77.4903L24.9094 67.677H35.2306L25.7695 79V75.6031L23.6192 79L24.9094 75.6031L21.899 77.8677L22.3291 74.8482L18.8886 77.4903Z" fill="#A5C2F8"/>
<path d="M33.544 17.8557C33.544 17.8557 30.4446 15.179 30.1036 12.949C29.9919 12.2186 30.0088 11.7941 30.1036 11.0619C30.2416 9.99567 31.1232 9.48373 30.9637 8.41984C30.7752 7.16272 29.2435 6.28105 28.8134 5.7778" stroke="#8F9090" stroke-width="1.85492" stroke-dasharray="3.71 3.71"/>
<path d="M27.5233 3.13579C28.0967 2.1293 29.4155 0.342777 30.1036 1.24862C30.7917 2.15446 28.6701 2.88417 27.5233 3.13579Z" stroke="#F2C94C" stroke-width="1.85492"/>
<path d="M25.9375 3.13576C25.3641 2.12927 24.0452 0.342747 23.3571 1.24859C22.6691 2.15443 24.7906 2.88414 25.9375 3.13576Z" stroke="#F2C94C" stroke-width="1.85492"/>
<path d="M37.8445 40.8792L33.544 43.1438H44.7254L46.8756 40.8792H37.8445Z" fill="#AF7D4E"/>
</svg>
